# xmcd CD database file
#
# Track frame offsets:
#	150
#	16232
#	37952
#	54052
#
# Disc length: 1006 seconds
#
# Revision: 1
# Processed by: cddbd v1.5.1PL0 Copyright (c) Steve Scherf et al.
# Submitted via: CDex 1.51
#
DISCID=1f03ec04
DTITLE=金月真美 - SHOW TIME
DYEAR=1997
DGENRE=JPop
TTITLE0=SHOW TIME
TTITLE1=Melody
TTITLE2=SHOW TIME -Karaoke-
TTITLE3=Melody -Karaoke-
EXTD=YEAR: 1997
EXTT0=
EXTT1=
EXTT2=
EXTT3=
PLAYORDER=
